<svg width="623" height="623" viewBox="0 0 623 623" fill="none" xmlns="http://www.w3.org/2000/svg">
<g opacity="0.5">
<path d="M361.508 237.132C363.259 239.649 365.483 242.191 365.552 245.418C365.888 252.508 366.361 259.585 366.872 266.669C363.67 266.905 360.455 266.918 357.253 266.812C357.39 260.177 357.372 253.536 357.658 246.901C359.035 243.686 360.424 240.465 361.508 237.132Z" fill="white"/>
<path d="M357.708 313.238C360.131 314.652 362.611 316.029 365.327 316.82C362.673 317.026 360.013 317.25 357.353 317.144C357.465 315.842 357.583 314.534 357.708 313.238Z" fill="white"/>
<path d="M323.543 115.417C327.056 112.906 331.667 112.993 335.803 112.788C339.591 112.707 344.488 113.542 345.784 117.735C348.712 117.174 351.185 115.479 353.353 113.517C352.724 115.585 351.173 117.118 349.447 118.32C351.995 118.252 354.811 118.526 356.699 120.451C358.711 122.937 359.222 126.245 358.948 129.353C358.362 134.593 355.889 139.546 352.138 143.24C350.967 141.334 348.681 139.895 346.438 140.923C343.254 142.324 342.906 146.224 342.339 149.208C340.096 146.498 340.744 142.885 340.638 139.664C338.831 136.836 337.024 133.964 336.214 130.662C330.514 132.624 324.614 134.761 318.478 134.051C318.135 135.284 317.792 136.518 317.444 137.745C318.484 137.39 319.531 137.054 320.59 136.742C319.568 137.801 318.341 138.698 317.531 139.944C316.97 141.24 317.126 142.711 317.039 144.094C315.356 140.767 315.026 136.805 316.366 133.303C313.681 131.565 311.905 128.419 312.042 125.198C312.073 123.385 313.494 121.828 315.238 121.448C318.01 120.769 320.851 121.765 323.306 123.03C322.091 120.719 321.057 117.292 323.543 115.417Z" fill="#1B2E35"/>
<path d="M328.844 137.341C329.019 136.038 330.551 136.418 331.448 136.668C332.626 136.967 333.542 137.845 334.053 138.935C332.308 138.4 330.713 137.397 328.844 137.341Z" fill="#1B2E35"/>
<path d="M329.193 154.641C331.654 153.482 333.834 151.887 335.218 149.489C334.875 152.386 331.972 154.454 329.193 154.641Z" fill="#1B2E35"/>
<path d="M307.625 181.075C311.251 176.639 317.45 176.901 322.633 176.727C320.87 178.297 319.287 180.06 317.842 181.922C319.711 183.499 321.387 185.324 322.49 187.529C320.708 187.118 318.945 186.651 317.182 186.177C319.655 192.339 322.029 198.581 323.393 205.098C328.62 199.46 335.23 195.441 341.591 191.236C339.996 190.464 338.283 189.99 336.588 189.498C340.015 188.177 343.578 187.286 347.179 186.601C347.441 183.636 348.394 180.782 350.064 178.309C353.665 179.088 357.334 179.524 360.904 180.471C361.066 180.521 361.39 180.62 361.552 180.67C359.041 180.552 356.412 180.932 354.35 182.477C350.469 185.181 348.22 189.592 346.762 193.971C344.226 201.79 343.734 210.132 344.214 218.287C346.17 218.661 348.132 219.022 350.101 219.365C348.905 225.981 347.541 232.597 345.379 238.97C344.843 241.263 342.282 241.874 340.413 242.69C332.022 245.574 323.138 246.515 314.384 247.63C312.117 245.705 309.88 243.743 307.644 241.786C304.896 241.649 302.155 241.301 299.401 241.425C299.214 232.529 299.376 223.614 300.23 214.754C301.046 206.506 302.329 198.295 304.41 190.271C305.239 187.131 305.999 183.916 307.625 181.075Z" fill="#002F24"/>
<path d="M342.588 255.691C348.357 254.539 354.462 252.171 357.658 246.901C357.372 253.536 357.39 260.177 357.253 266.812C357.21 268.438 357.116 270.064 357.041 271.69C339.379 270.463 321.717 269.217 304.049 268.002C303.052 263.205 301.993 258.426 300.971 253.642C303.669 254.452 306.155 255.878 308.927 256.458C311.276 256.981 313.606 255.891 315.967 256.215C324.801 257.199 333.822 257.33 342.588 255.691Z" fill="#002F24"/>
<path d="M305.569 504.562C309.6 504.063 313.631 503.54 317.686 503.272C317.855 503.621 318.179 504.306 318.341 504.649C319.306 507.54 320.496 510.374 321.206 513.346C321.318 514.355 320.353 514.791 319.518 514.86C313.643 515.551 307.7 515.651 301.875 516.729C297.725 517.713 293.408 518.99 289.116 518.099C287.159 517.607 286.007 515.589 286.424 513.645C289.502 513.028 292.636 512.443 295.476 511.053C297.688 510 299.594 508.437 301.588 507.035C302.815 506.692 304.049 506.362 305.289 506.032C305.158 505.689 304.902 505.01 304.778 504.667L305.569 504.562Z" fill="#1B2E35"/>
<path d="M351.135 506.119L352.238 506.175C355.745 506.237 359.259 506.132 362.767 506.194C363.558 506.206 364.355 506.238 365.153 506.275C365.807 509.371 366.579 512.443 367.215 515.545C367.389 516.336 367.495 517.557 366.511 517.869C364.598 518.218 362.642 517.906 360.723 517.888C353.042 517.476 345.36 518.012 337.678 518.05C336.084 518.043 334.202 518.025 333.149 516.629C332.227 515.663 332.022 513.402 333.729 513.24C338.463 512.05 343.254 510.829 347.578 508.48C347.777 508.381 348.17 508.187 348.369 508.088C349.41 507.938 350.462 507.845 351.515 507.758C351.441 507.421 351.285 506.748 351.21 506.412L351.135 506.119Z" fill="#1B2E35"/>
<path d="M345.491 162.578C346.301 159.139 345.746 154.828 348.55 152.249C349.223 156.977 348.917 161.768 348.793 166.528C346.893 165.998 345.223 164.783 345.491 162.578Z" fill="#F5F5F5"/>
<path d="M298.741 505.016C300.323 504.904 301.893 505.141 303.413 505.627C301.968 506.518 299.557 506.972 298.741 505.016Z" fill="#F5F5F5"/>
<path d="M346.494 506.194C347.267 505.807 348.843 506.275 348.949 507.203C348.189 507.708 346.301 507.278 346.494 506.194Z" fill="#F5F5F5"/>
<path d="M363.726 181.511C364.841 180.521 365.969 178.34 367.757 179.256C369.794 180.577 368.573 183.436 368.598 185.405C367.24 183.81 365.589 182.464 363.726 181.511Z" fill="#E7E7E7"/>
<path d="M278.032 468.677C282.113 468.066 286.256 468.621 290.368 468.446C290.486 471.194 290.511 473.947 290.399 476.695C285.371 476.763 280.331 476.838 275.304 476.626C276.301 474.009 276.631 471.106 278.032 468.677Z" fill="#E7E7E7"/>
<path d="M318.477 134.051C324.614 134.761 330.514 132.624 336.214 130.662C337.024 133.964 338.831 136.836 340.638 139.664C340.743 142.885 340.096 146.498 342.338 149.208C342.905 146.224 343.254 142.324 346.438 140.922C348.681 139.894 350.967 141.334 352.138 143.24C352.219 144.847 352.2 146.455 352.157 148.068C351.123 149.601 349.889 150.978 348.55 152.249C345.746 154.828 346.301 159.139 345.491 162.578C345.279 166.74 344.625 171.294 346.668 175.131C338.843 179.43 331.735 185.373 327.274 193.211C328.477 187.367 329.224 181.33 328.34 175.387C330.906 173.991 332.632 171.294 332.613 168.347C332.626 168.073 332.644 167.525 332.657 167.25C335.398 166.702 337.853 165.313 339.734 163.245C337.417 163.986 335.099 164.808 332.669 165.07C328.09 164.733 323.524 162.671 320.92 158.771C318.247 154.398 317.25 149.158 317.038 144.094C317.126 142.71 316.97 141.24 317.53 139.944C318.34 138.698 319.568 137.801 320.589 136.742C319.53 137.054 318.484 137.39 317.443 137.745C317.792 136.518 318.135 135.284 318.477 134.051ZM328.844 137.34C330.713 137.396 332.308 138.399 334.052 138.935C333.542 137.845 332.626 136.966 331.448 136.667C330.551 136.418 329.019 136.038 328.844 137.34ZM329.143 140.96C328.67 141.932 328.601 143.327 329.648 143.956C331.722 144.175 331.106 139.957 329.143 140.96ZM319.661 142.137C319.231 143.302 319.281 144.872 320.72 145.221C322.178 144.461 321.53 141.19 319.661 142.137ZM324.34 143.826C323.549 146.424 322.49 148.928 321.374 151.408C322.701 151.626 324.053 151.7 325.405 151.576C325.256 148.965 324.963 146.367 324.34 143.826ZM329.193 154.641C331.972 154.454 334.875 152.386 335.217 149.489C333.834 151.887 331.654 153.482 329.193 154.641Z" fill="#FFC4BE"/>
<path d="M350.101 219.364C355.191 220.274 360.268 221.233 365.358 222.174C364.536 227.264 363.053 232.223 361.508 237.132C360.424 240.465 359.035 243.686 357.658 246.901C354.462 252.171 348.357 254.539 342.588 255.691C333.822 257.33 324.801 257.199 315.967 256.215C313.606 255.891 311.276 256.981 308.927 256.458C306.155 255.878 303.669 254.452 300.971 253.642C299.376 253.106 297.788 252.564 296.205 252.003C296.928 248.521 298.274 245.144 298.392 241.562C298.641 241.524 299.152 241.462 299.401 241.425C302.155 241.3 304.896 241.649 307.644 241.786C309.88 243.742 312.117 245.705 314.384 247.63C323.138 246.515 332.022 245.574 340.413 242.689C342.282 241.873 344.843 241.263 345.379 238.97C347.541 232.597 348.905 225.981 350.101 219.364Z" fill="#FFC4BE"/>
<path d="M314.26 491.522C314.808 495.229 315.325 498.942 316.06 502.618C316.602 502.823 317.144 503.041 317.686 503.272C313.631 503.54 309.6 504.063 305.569 504.561C305.152 501.322 304.603 498.107 304.061 494.892C307.158 494.519 310.298 494.419 313.375 493.846C314.646 493.815 314.129 492.307 314.26 491.522Z" fill="#FFC4BE"/>
<path d="M361.595 493.796H361.782C361.776 497.303 362.33 500.773 362.611 504.262C362.648 504.742 362.729 505.714 362.767 506.194C359.259 506.131 355.745 506.237 352.238 506.175C352.063 502.711 351.671 499.266 351.285 495.827C354.555 495.802 357.832 495.808 361.109 495.765C361.234 495.272 361.471 494.288 361.595 493.796Z" fill="#FFC4BE"/>
<path d="M329.143 140.96C331.106 139.957 331.722 144.175 329.648 143.957C328.601 143.328 328.67 141.932 329.143 140.96Z" fill="#303B41"/>
<path d="M319.661 142.137C321.53 141.19 322.178 144.461 320.72 145.221C319.281 144.872 319.231 143.302 319.661 142.137Z" fill="#27363C"/>
<path d="M324.34 143.826C324.963 146.368 325.256 148.965 325.405 151.576C324.053 151.7 322.702 151.626 321.375 151.408C322.49 148.928 323.549 146.424 324.34 143.826Z" fill="#FE857F"/>
<path d="M317.406 153.956C317.487 155.532 317.58 157.102 317.699 158.678C318.77 158.709 319.842 158.74 320.92 158.771C323.524 162.671 328.09 164.733 332.669 165.07C332.663 165.612 332.657 166.708 332.657 167.25C332.645 167.525 332.626 168.073 332.613 168.347C328.421 166.148 324.29 163.836 320.222 161.419C319.3 160.871 318.284 160.534 317.269 160.223C317.219 158.13 317.281 156.043 317.406 153.956Z" fill="#E7E7E8"/>
<path d="M301.171 502.057C302.94 502.082 304.111 503.583 304.111 505.278C302.865 504.474 301.619 503.546 301.171 502.057Z" fill="#FAFAFA"/>
<path d="M348.799 503.851C349.628 503.683 350.294 504.935 350.076 505.658C349.266 505.764 348.537 504.568 348.799 503.851Z" fill="#FAFAFA"/>
<path d="M332.669 165.07C335.099 164.808 337.417 163.986 339.734 163.245C337.853 165.313 335.398 166.702 332.657 167.251C332.657 166.709 332.663 165.612 332.669 165.07Z" fill="#DD9C99"/>
<path d="M322.633 176.726C324.203 175.387 326.309 175.125 328.246 174.695L328.34 175.387C329.224 181.33 328.477 187.367 327.274 193.211C331.735 185.374 338.843 179.43 346.668 175.131C348.076 175.854 349.179 177 350.064 178.309C348.394 180.782 347.441 183.635 347.179 186.601C343.578 187.286 340.015 188.177 336.588 189.498C338.283 189.99 339.996 190.463 341.591 191.236C335.23 195.441 328.62 199.46 323.393 205.098C322.029 198.581 319.655 192.339 317.182 186.177C318.945 186.651 320.708 187.118 322.49 187.529C321.387 185.324 319.711 183.498 317.842 181.922C319.287 180.059 320.87 178.296 322.633 176.726Z" fill="#309E3A"/>
<path d="M354.35 182.477C356.412 180.932 359.041 180.552 361.552 180.67C362.287 180.913 363.003 181.206 363.726 181.511C365.589 182.464 367.24 183.81 368.598 185.405C368.841 185.735 369.321 186.402 369.557 186.732C372.984 192.164 372.629 198.918 372.66 205.085C372.529 207.876 372.398 210.667 372.137 213.452C371.844 216.723 371.445 219.988 370.922 223.227C369.065 222.872 367.209 222.523 365.358 222.174C360.268 221.234 355.191 220.274 350.101 219.365C348.132 219.022 346.17 218.661 344.214 218.287C343.734 210.132 344.226 201.79 346.762 193.971C348.22 189.591 350.469 185.181 354.35 182.477Z" fill="#309E3A"/>
<path d="M288.075 199.758C294.262 193.205 300.622 186.756 307.625 181.075C305.999 183.916 305.239 187.13 304.41 190.27C302.329 198.294 301.046 206.506 300.23 214.754C300.006 214.486 299.57 213.95 299.345 213.676C296.274 209.932 293.321 206.094 290.2 202.394C289.477 201.528 288.785 200.631 288.075 199.758Z" fill="#309E3A"/>
<path d="M213.153 205.553C213.751 200.843 217.745 197.024 222.33 196.114C240.092 195.902 257.872 196.033 275.64 196.095C271.491 197.927 267.66 201.397 267.323 206.188C264.956 231.451 262.694 256.732 260.308 281.988C257.959 307.631 255.598 333.268 253.237 358.904C252.944 363.396 249.661 367.277 245.506 368.791C244.465 369.022 243.412 369.184 242.359 369.277C241.606 369.289 240.852 369.289 240.104 369.271C237.899 368.324 235.587 367.184 234.267 365.078C233.052 363.309 232.965 361.103 232.666 359.047C221.445 358.966 210.219 359.066 198.992 359.016C199.105 357.795 199.217 356.574 199.335 355.359C203.129 313.861 206.961 272.369 210.773 230.878C211.203 226.504 211.589 222.131 211.988 217.751C212.412 213.689 212.63 209.602 213.153 205.553ZM220.623 208.886C218.449 209.552 218.698 213.346 221.171 213.197C232.803 213.328 244.447 213.184 256.078 213.265C257.318 213.184 258.85 213.434 259.729 212.337C260.906 211.259 260.352 208.767 258.614 208.761C252.57 208.599 246.515 208.755 240.472 208.699C233.856 208.83 227.214 208.443 220.623 208.886ZM219.495 220.878C217.471 221.545 217.558 225.165 219.919 225.165C231.557 225.314 243.213 225.146 254.857 225.246C256.221 225.177 258.009 225.464 258.832 224.081C259.878 222.835 258.969 220.586 257.268 220.716C245.643 220.61 234.011 220.741 222.386 220.654C221.42 220.679 220.43 220.629 219.495 220.878ZM218.143 233.027C216.729 233.756 216.436 236.104 217.913 236.927C218.735 237.294 219.664 237.182 220.542 237.245C228.853 237.207 237.157 237.226 245.468 237.238C246.596 237.201 247.973 237.263 248.689 236.198C249.705 235.02 249.063 232.634 247.312 232.728C238.603 232.609 229.887 232.747 221.177 232.666C220.168 232.734 219.072 232.535 218.143 233.027ZM216.991 245.038C215.564 245.823 215.365 248.303 216.978 249.001C219.595 249.43 222.268 249.113 224.909 249.219C226.51 249.15 228.766 249.561 229.588 247.755C230.429 246.259 229.021 244.334 227.345 244.677C223.912 244.82 220.324 244.216 216.991 245.038ZM216.287 256.838C215.028 257.355 214.237 259.037 215.053 260.246C215.826 261.473 217.446 261.149 218.679 261.236C230.298 261.155 241.923 261.286 253.536 261.174C256.115 261.423 257.012 256.963 254.234 256.732C241.593 256.707 228.915 256.495 216.287 256.838ZM215.197 268.831C213.11 269.472 213.153 273.223 215.62 273.136C223.071 273.235 230.529 273.21 237.98 273.148C239.818 273.291 241.12 270.986 240.086 269.485C239.182 268.22 237.407 268.775 236.098 268.631C229.133 268.806 222.137 268.388 215.197 268.831ZM214.543 280.736C212.219 280.898 211.789 284.91 214.3 285.116C226.566 285.29 238.858 285.178 251.131 285.172C252.894 285.353 254.514 283.272 253.53 281.671C252.988 280.499 251.511 280.686 250.458 280.637C238.484 280.736 226.504 280.531 214.543 280.736ZM212.605 293.028C211.197 293.863 211.023 296.268 212.63 296.99C213.589 297.208 214.586 297.177 215.57 297.196C224.081 297.109 232.591 297.227 241.101 297.146C243.543 297.551 244.833 293.526 242.366 292.754C233.656 292.442 224.915 292.748 216.193 292.611C215.004 292.692 213.683 292.424 212.605 293.028ZM211.92 304.803C210.076 305.438 209.77 308.51 211.814 309.064C215.34 309.288 218.904 309.276 222.43 309.076C224.479 308.796 225.127 305.476 223.046 304.772C219.352 304.566 215.608 304.504 211.92 304.803ZM210.829 316.814C208.755 317.425 208.792 321.15 211.203 321.113C223.028 321.231 234.859 321.1 246.683 321.175C247.91 321.144 249.468 321.244 250.153 319.985C251.131 318.708 250.222 316.577 248.552 316.658C236.939 316.54 225.327 316.677 213.708 316.596C212.748 316.615 211.764 316.552 210.829 316.814ZM209.428 328.963C208.294 329.573 207.876 331.118 208.499 332.233C209.21 333.367 210.686 333.093 211.82 333.187C218.685 333.124 225.551 333.23 232.416 333.137C234.167 333.305 235.6 331.255 234.759 329.679C234.254 328.527 232.815 328.632 231.775 328.614C225.333 328.632 218.885 328.651 212.437 328.608C211.434 328.664 210.35 328.483 209.428 328.963ZM208.275 340.98C206.387 341.952 206.942 345.404 209.278 345.105C221.576 345.142 233.893 345.21 246.191 345.073C248.54 345.08 249.262 341.03 246.714 340.687C235.089 340.463 223.451 340.694 211.82 340.582C210.643 340.663 209.347 340.407 208.275 340.98Z" fill="#B6B6BB"/>
<path d="M297.669 484.052C303.75 483.454 309.837 482.85 315.923 482.258C316.409 482.208 317.375 482.115 317.861 482.065C318.116 484.314 318.372 486.569 318.652 488.824C317.082 489.018 315.518 489.217 313.948 489.391C310.428 489.784 306.909 490.176 303.389 490.588C301.507 490.793 299.632 491.017 297.75 491.223C296.654 488.943 295.501 486.688 294.554 484.345C295.589 484.245 296.629 484.146 297.669 484.052Z" fill="#007CFF"/>
<path d="M341.547 486.688C342.8 486.675 344.064 486.669 345.329 486.688C352.014 486.793 358.705 486.918 365.39 487.03L366.629 487.036C366.717 489.285 366.729 491.541 366.698 493.802C365.053 493.79 363.421 493.765 361.782 493.796H361.595C358.082 493.802 354.574 493.784 351.067 493.79C348.78 493.79 346.488 493.79 344.201 493.796C343.329 491.416 342.444 489.049 341.547 486.688Z" fill="#007CFF"/>
<path d="M275.64 196.096C280.886 195.223 286.206 197.771 289.141 202.126C291.57 206.954 291.826 212.481 293.215 217.645C294.953 225.613 296.629 233.594 298.392 241.562C298.274 245.144 296.928 248.521 296.205 252.004C297.788 252.564 299.376 253.106 300.971 253.642C301.993 258.427 303.052 263.205 304.049 268.002C304.703 271.285 305.282 274.818 307.625 277.391C309.606 279.883 312.559 281.278 315.556 282.163C310.08 282.281 304.61 282.2 299.14 282.225C289.757 282.213 280.375 282.225 270.999 282.219C267.435 282.213 263.859 282.331 260.308 281.989C262.694 256.732 264.956 231.451 267.323 206.188C267.66 201.397 271.491 197.927 275.64 196.096Z" fill="#5A5A5F"/>
<path d="M178.39 359.104C185.255 358.917 192.127 359.079 198.993 359.017C210.219 359.066 221.445 358.967 232.666 359.048C232.965 361.104 233.052 363.309 234.267 365.078C235.588 367.184 237.899 368.324 240.104 369.271C237.575 369.24 235.046 369.265 232.522 369.265C228.105 369.265 223.694 369.265 219.284 369.265C208.699 369.24 198.108 369.302 187.517 369.246C184.956 369.271 182.601 367.994 180.788 366.268C179.175 364.225 178.583 361.652 178.39 359.104Z" fill="#5A5A5F"/>
<path d="M289.141 202.126L290.2 202.394C293.321 206.094 296.274 209.932 299.345 213.676C297.346 215.066 295.302 216.386 293.215 217.645C291.826 212.48 291.57 206.954 289.141 202.126Z" fill="#FEC4BE"/>
<path d="M208.057 215.521C209.372 216.256 210.674 217.009 211.988 217.751C211.59 222.131 211.203 226.504 210.773 230.877C209.415 230.024 207.808 229.382 206.836 228.049C206.811 224.33 207.509 220.648 207.708 216.935C207.796 216.58 207.97 215.876 208.057 215.521Z" fill="#FEC4BE"/>
<path d="M220.623 208.886C227.214 208.443 233.856 208.83 240.472 208.699C246.515 208.755 252.571 208.599 258.614 208.761C260.352 208.767 260.906 211.259 259.729 212.337C258.85 213.434 257.318 213.184 256.078 213.265C244.447 213.184 232.803 213.328 221.171 213.197C218.698 213.346 218.449 209.552 220.623 208.886Z" fill="#5A5A5F"/>
<path d="M219.495 220.879C220.43 220.629 221.42 220.679 222.386 220.654C234.011 220.742 245.643 220.611 257.268 220.717C258.969 220.586 259.878 222.835 258.832 224.081C258.009 225.464 256.221 225.177 254.857 225.246C243.213 225.146 231.557 225.314 219.919 225.165C217.558 225.165 217.471 221.545 219.495 220.879Z" fill="#5A5A5F"/>
<path d="M218.143 233.027C219.072 232.535 220.168 232.734 221.177 232.666C229.887 232.747 238.603 232.609 247.312 232.728C249.063 232.634 249.705 235.02 248.689 236.198C247.973 237.263 246.596 237.201 245.468 237.238C237.157 237.226 228.853 237.207 220.542 237.245C219.664 237.182 218.735 237.294 217.913 236.927C216.436 236.104 216.729 233.756 218.143 233.027Z" fill="#5A5A5F"/>
<path d="M216.991 245.039C220.324 244.216 223.913 244.82 227.345 244.677C229.021 244.335 230.429 246.26 229.588 247.755C228.766 249.562 226.51 249.15 224.909 249.219C222.268 249.113 219.595 249.431 216.979 249.001C215.365 248.303 215.564 245.824 216.991 245.039Z" fill="#5A5A5F"/>
<path d="M216.287 256.838C228.915 256.495 241.593 256.707 254.234 256.732C257.013 256.963 256.115 261.423 253.536 261.174C241.923 261.286 230.298 261.155 218.679 261.236C217.446 261.149 215.826 261.473 215.053 260.246C214.237 259.037 215.029 257.355 216.287 256.838Z" fill="#5A5A5F"/>
<path d="M304.049 268.002C321.717 269.217 339.379 270.463 357.041 271.691C356.966 286.842 357.197 302 357.353 317.145C357.44 321.288 357.484 325.424 357.583 329.561C357.876 344.943 358.206 360.325 358.923 375.694C359.402 388.366 360.648 400.994 361.34 413.66C362.212 427.347 362.954 441.047 363.67 454.74C363.907 459.295 364.143 463.849 364.368 468.397C364.754 474.608 364.847 480.832 365.389 487.031C358.705 486.918 352.014 486.794 345.329 486.688C344.32 480.564 343.273 474.446 342.264 468.322C341.547 463.93 340.812 459.538 340.114 455.145C337.741 441.115 335.51 427.067 333.261 413.018C331.336 400.39 329.106 387.799 327.897 375.077C326.601 362.132 325.754 349.154 324.782 336.19C324.433 328.371 323.792 320.571 323.381 312.753C323.138 309.12 323.206 305.457 322.602 301.856C319.991 306.871 319.462 312.628 318.702 318.154C317.356 331.449 317.774 344.874 318.777 358.182C318.901 360.406 319.287 362.611 319.717 364.798C318.633 372.853 317.344 380.89 316.889 389.014C315.624 410.906 315.705 432.842 315.699 454.759C315.674 459.313 315.805 463.867 315.805 468.422C315.842 473.032 315.954 477.642 315.923 482.258C309.837 482.85 303.75 483.455 297.669 484.053C296.579 478.844 295.863 473.567 294.984 468.322C294.293 463.805 293.576 459.295 292.916 454.778C291.009 441.695 289.234 428.587 287.982 415.429C286.642 402.004 285.695 388.466 286.81 374.984C288.069 359.59 290 344.258 292.143 328.963C292.716 324.558 293.396 320.166 293.981 315.762C295.676 304.579 297.339 293.39 299.14 282.226C304.61 282.201 310.08 282.282 315.556 282.163C312.559 281.279 309.606 279.883 307.625 277.391C305.282 274.818 304.703 271.286 304.049 268.002Z" fill="#95BEFF"/>
<path d="M215.197 268.831C222.137 268.388 229.133 268.806 236.098 268.631C237.407 268.775 239.182 268.22 240.086 269.485C241.12 270.986 239.818 273.291 237.98 273.148C230.529 273.21 223.071 273.235 215.62 273.136C213.153 273.223 213.11 269.472 215.197 268.831Z" fill="#5A5A5F"/>
<path d="M214.543 280.736C226.504 280.531 238.484 280.736 250.458 280.637C251.511 280.687 252.988 280.5 253.53 281.671C254.514 283.272 252.894 285.353 251.131 285.172C238.858 285.178 226.566 285.291 214.3 285.116C211.789 284.911 212.219 280.898 214.543 280.736Z" fill="#5A5A5F"/>
<path d="M212.605 293.028C213.683 292.424 215.004 292.692 216.194 292.611C224.916 292.748 233.656 292.443 242.366 292.754C244.833 293.527 243.543 297.551 241.101 297.146C232.591 297.227 224.081 297.109 215.571 297.196C214.586 297.177 213.589 297.208 212.63 296.99C211.023 296.268 211.197 293.863 212.605 293.028Z" fill="#5A5A5F"/>
<path d="M211.92 304.803C215.608 304.504 219.352 304.566 223.046 304.772C225.127 305.475 224.479 308.796 222.43 309.076C218.903 309.276 215.34 309.288 211.814 309.064C209.77 308.509 210.076 305.438 211.92 304.803Z" fill="#5A5A5F"/>
<path d="M209.428 328.963C210.35 328.483 211.434 328.664 212.437 328.608C218.885 328.652 225.333 328.633 231.775 328.614C232.815 328.633 234.254 328.527 234.759 329.679C235.6 331.256 234.167 333.305 232.416 333.137C225.551 333.231 218.685 333.125 211.82 333.187C210.686 333.093 209.21 333.368 208.499 332.234C207.876 331.119 208.294 329.574 209.428 328.963Z" fill="#5A5A5F"/>
<path d="M208.275 340.98C209.347 340.407 210.643 340.663 211.82 340.582C223.451 340.694 235.089 340.463 246.714 340.687C249.262 341.03 248.54 345.08 246.191 345.073C233.893 345.21 221.576 345.142 209.278 345.105C206.942 345.404 206.388 341.952 208.275 340.98Z" fill="#5A5A5F"/>
<path d="M300.654 502.686C300.865 501.396 302.554 501.434 303.326 502.181C304.08 502.811 304.429 503.764 304.778 504.667C304.902 505.01 305.158 505.689 305.289 506.032C304.049 506.362 302.815 506.692 301.588 507.035C299.912 507.116 298.51 506.387 298.187 504.667C299.476 504.412 300.778 504.424 302.099 504.599C301.738 504.119 301.015 503.166 300.654 502.686ZM301.171 502.057C301.619 503.546 302.865 504.474 304.111 505.278C304.111 503.583 302.94 502.082 301.171 502.057ZM298.741 505.016C299.557 506.972 301.968 506.518 303.413 505.627C301.893 505.141 300.323 504.904 298.741 505.016Z" fill="#1B2E35"/>
<path d="M347.858 502.799C349.852 502.686 350.693 504.462 351.135 506.119L351.21 506.412C350.269 506.979 349.329 507.552 348.369 508.088C348.17 508.187 347.777 508.381 347.578 508.48C346.444 507.733 345.64 506.736 345.734 505.322C346.762 505.446 347.79 505.577 348.824 505.72C348.606 505.403 348.17 504.773 347.952 504.462C347.927 504.044 347.883 503.216 347.858 502.799ZM348.799 503.851C348.537 504.568 349.266 505.764 350.076 505.658C350.294 504.935 349.628 503.683 348.799 503.851ZM346.494 506.194C346.301 507.278 348.189 507.708 348.949 507.203C348.843 506.275 347.267 505.808 346.494 506.194Z" fill="#1B2E35"/>
<path d="M318.702 318.154C319.462 312.628 319.991 306.871 322.602 301.856C323.206 305.457 323.138 309.12 323.381 312.752C323.792 320.571 324.433 328.371 324.782 336.189C322.876 345.684 321.374 355.26 319.717 364.798C319.287 362.611 318.901 360.405 318.777 358.181C317.773 344.874 317.356 331.448 318.702 318.154Z" fill="#7798CE"/>
<path d="M210.829 316.814C211.764 316.553 212.748 316.615 213.708 316.596C225.327 316.677 236.939 316.54 248.552 316.658C250.222 316.578 251.131 318.708 250.153 319.985C249.468 321.244 247.91 321.144 246.683 321.175C234.858 321.101 223.028 321.231 211.203 321.113C208.792 321.15 208.755 317.425 210.829 316.814Z" fill="#5A5A5F"/>
<path d="M303.389 490.588C306.909 490.177 310.429 489.784 313.949 489.392C314.03 489.927 314.179 490.993 314.26 491.522C314.129 492.307 314.646 493.815 313.375 493.846C310.298 494.419 307.158 494.519 304.062 494.893C303.825 493.454 303.6 492.014 303.389 490.588Z" fill="#DE9D99"/>
<path d="M351.067 493.79C354.574 493.784 358.082 493.802 361.595 493.796C361.471 494.288 361.234 495.273 361.109 495.765C357.832 495.808 354.555 495.802 351.285 495.827C351.229 495.316 351.123 494.301 351.067 493.79Z" fill="#DE9D98"/>
<path d="M348.369 508.087C349.329 507.552 350.269 506.979 351.21 506.412C351.285 506.748 351.441 507.421 351.515 507.757C350.462 507.845 349.41 507.938 348.369 508.087Z" fill="#1B2E35"/>
<path d="M122.824 569.192C121.16 569.192 119.56 568.925 118.024 568.392C116.509 567.837 115.336 567.133 114.504 566.28L115.432 564.456C116.221 565.224 117.277 565.875 118.6 566.408C119.944 566.92 121.352 567.176 122.824 567.176C124.232 567.176 125.373 567.005 126.248 566.664C127.144 566.301 127.795 565.821 128.2 565.224C128.627 564.627 128.84 563.965 128.84 563.24C128.84 562.365 128.584 561.661 128.072 561.128C127.581 560.595 126.931 560.179 126.12 559.88C125.309 559.56 124.413 559.283 123.432 559.048C122.451 558.813 121.469 558.568 120.488 558.312C119.507 558.035 118.6 557.672 117.768 557.224C116.957 556.776 116.296 556.189 115.784 555.464C115.293 554.717 115.048 553.747 115.048 552.552C115.048 551.443 115.336 550.429 115.912 549.512C116.509 548.573 117.416 547.827 118.632 547.272C119.848 546.696 121.405 546.408 123.304 546.408C124.563 546.408 125.811 546.589 127.048 546.952C128.285 547.293 129.352 547.773 130.248 548.392L129.448 550.28C128.488 549.64 127.464 549.171 126.376 548.872C125.309 548.573 124.275 548.424 123.272 548.424C121.928 548.424 120.819 548.605 119.944 548.968C119.069 549.331 118.419 549.821 117.992 550.44C117.587 551.037 117.384 551.72 117.384 552.488C117.384 553.363 117.629 554.067 118.12 554.6C118.632 555.133 119.293 555.549 120.104 555.848C120.936 556.147 121.843 556.413 122.824 556.648C123.805 556.883 124.776 557.139 125.736 557.416C126.717 557.693 127.613 558.056 128.424 558.504C129.256 558.931 129.917 559.507 130.408 560.232C130.92 560.957 131.176 561.907 131.176 563.08C131.176 564.168 130.877 565.181 130.28 566.12C129.683 567.037 128.765 567.784 127.528 568.36C126.312 568.915 124.744 569.192 122.824 569.192ZM143.632 569.16C141.882 569.16 140.346 568.797 139.023 568.072C137.701 567.325 136.666 566.312 135.919 565.032C135.173 563.731 134.799 562.248 134.799 560.584C134.799 558.92 135.151 557.448 135.855 556.168C136.581 554.888 137.562 553.885 138.799 553.16C140.058 552.413 141.466 552.04 143.023 552.04C144.602 552.04 145.999 552.403 147.215 553.128C148.453 553.832 149.424 554.835 150.128 556.136C150.832 557.416 151.184 558.899 151.184 560.584C151.184 560.691 151.173 560.808 151.152 560.936C151.152 561.043 151.152 561.16 151.152 561.288H136.527V559.592H149.936L149.04 560.264C149.04 559.048 148.773 557.971 148.24 557.032C147.728 556.072 147.024 555.325 146.127 554.792C145.231 554.259 144.197 553.992 143.023 553.992C141.871 553.992 140.837 554.259 139.919 554.792C139.002 555.325 138.287 556.072 137.775 557.032C137.263 557.992 137.007 559.091 137.007 560.328V560.68C137.007 561.96 137.285 563.091 137.839 564.072C138.415 565.032 139.205 565.789 140.207 566.344C141.231 566.877 142.394 567.144 143.695 567.144C144.719 567.144 145.669 566.963 146.543 566.6C147.439 566.237 148.207 565.683 148.847 564.936L150.128 566.408C149.381 567.304 148.442 567.987 147.311 568.456C146.202 568.925 144.976 569.16 143.632 569.16ZM177.44 552.04C178.805 552.04 179.989 552.307 180.992 552.84C182.016 553.352 182.805 554.141 183.36 555.208C183.936 556.275 184.224 557.619 184.224 559.24V569H181.952V559.464C181.952 557.693 181.525 556.36 180.672 555.464C179.84 554.547 178.656 554.088 177.12 554.088C175.968 554.088 174.965 554.333 174.112 554.824C173.28 555.293 172.629 555.987 172.16 556.904C171.712 557.8 171.488 558.888 171.488 560.168V569H169.216V559.464C169.216 557.693 168.789 556.36 167.936 555.464C167.083 554.547 165.888 554.088 164.352 554.088C163.221 554.088 162.229 554.333 161.376 554.824C160.523 555.293 159.861 555.987 159.392 556.904C158.944 557.8 158.72 558.888 158.72 560.168V569H156.448V552.2H158.624V556.744L158.272 555.944C158.784 554.728 159.605 553.779 160.736 553.096C161.888 552.392 163.243 552.04 164.8 552.04C166.443 552.04 167.84 552.456 168.992 553.288C170.144 554.099 170.891 555.325 171.232 556.968L170.336 556.616C170.827 555.251 171.691 554.152 172.928 553.32C174.187 552.467 175.691 552.04 177.44 552.04ZM205.352 569.16C203.774 569.16 202.558 568.733 201.704 567.88C200.851 567.027 200.424 565.821 200.424 564.264V548.488H202.696V564.136C202.696 565.117 202.942 565.875 203.432 566.408C203.944 566.941 204.67 567.208 205.608 567.208C206.611 567.208 207.443 566.92 208.104 566.344L208.904 567.976C208.456 568.381 207.912 568.68 207.272 568.872C206.654 569.064 206.014 569.16 205.352 569.16ZM197.416 554.088V552.2H207.816V554.088H197.416ZM220.223 569.16C218.473 569.16 216.937 568.797 215.615 568.072C214.292 567.325 213.257 566.312 212.511 565.032C211.764 563.731 211.391 562.248 211.391 560.584C211.391 558.92 211.743 557.448 212.447 556.168C213.172 554.888 214.153 553.885 215.391 553.16C216.649 552.413 218.057 552.04 219.615 552.04C221.193 552.04 222.591 552.403 223.807 553.128C225.044 553.832 226.015 554.835 226.719 556.136C227.423 557.416 227.775 558.899 227.775 560.584C227.775 560.691 227.764 560.808 227.743 560.936C227.743 561.043 227.743 561.16 227.743 561.288H213.119V559.592H226.527L225.631 560.264C225.631 559.048 225.364 557.971 224.831 557.032C224.319 556.072 223.615 555.325 222.719 554.792C221.823 554.259 220.788 553.992 219.615 553.992C218.463 553.992 217.428 554.259 216.511 554.792C215.593 555.325 214.879 556.072 214.367 557.032C213.855 557.992 213.599 559.091 213.599 560.328V560.68C213.599 561.96 213.876 563.091 214.431 564.072C215.007 565.032 215.796 565.789 216.799 566.344C217.823 566.877 218.985 567.144 220.287 567.144C221.311 567.144 222.26 566.963 223.135 566.6C224.031 566.237 224.799 565.683 225.439 564.936L226.719 566.408C225.972 567.304 225.033 567.987 223.903 568.456C222.793 568.925 221.567 569.16 220.223 569.16ZM233.039 569V552.2H235.215V556.776L234.991 555.976C235.461 554.696 236.25 553.725 237.359 553.064C238.469 552.381 239.845 552.04 241.487 552.04V554.248C241.402 554.248 241.317 554.248 241.231 554.248C241.146 554.227 241.061 554.216 240.975 554.216C239.205 554.216 237.818 554.76 236.815 555.848C235.813 556.915 235.311 558.44 235.311 560.424V569H233.039ZM246.273 569V552.2H248.449V556.776L248.225 555.976C248.694 554.696 249.484 553.725 250.593 553.064C251.702 552.381 253.078 552.04 254.721 552.04V554.248C254.636 554.248 254.55 554.248 254.465 554.248C254.38 554.227 254.294 554.216 254.209 554.216C252.438 554.216 251.052 554.76 250.049 555.848C249.046 556.915 248.545 558.44 248.545 560.424V569H246.273ZM266.486 569.16C264.737 569.16 263.201 568.797 261.878 568.072C260.556 567.325 259.521 566.312 258.774 565.032C258.028 563.731 257.654 562.248 257.654 560.584C257.654 558.92 258.006 557.448 258.71 556.168C259.436 554.888 260.417 553.885 261.654 553.16C262.913 552.413 264.321 552.04 265.878 552.04C267.457 552.04 268.854 552.403 270.07 553.128C271.308 553.832 272.278 554.835 272.982 556.136C273.686 557.416 274.038 558.899 274.038 560.584C274.038 560.691 274.028 560.808 274.006 560.936C274.006 561.043 274.006 561.16 274.006 561.288H259.382V559.592H272.79L271.894 560.264C271.894 559.048 271.628 557.971 271.094 557.032C270.582 556.072 269.878 555.325 268.982 554.792C268.086 554.259 267.052 553.992 265.878 553.992C264.726 553.992 263.692 554.259 262.774 554.792C261.857 555.325 261.142 556.072 260.63 557.032C260.118 557.992 259.862 559.091 259.862 560.328V560.68C259.862 561.96 260.14 563.091 260.694 564.072C261.27 565.032 262.06 565.789 263.062 566.344C264.086 566.877 265.249 567.144 266.55 567.144C267.574 567.144 268.524 566.963 269.398 566.6C270.294 566.237 271.062 565.683 271.702 564.936L272.982 566.408C272.236 567.304 271.297 567.987 270.166 568.456C269.057 568.925 267.83 569.16 266.486 569.16ZM287.879 552.04C289.244 552.04 290.439 552.307 291.463 552.84C292.508 553.352 293.319 554.141 293.895 555.208C294.492 556.275 294.791 557.619 294.791 559.24V569H292.519V559.464C292.519 557.693 292.071 556.36 291.175 555.464C290.3 554.547 289.063 554.088 287.463 554.088C286.268 554.088 285.223 554.333 284.327 554.824C283.452 555.293 282.77 555.987 282.279 556.904C281.81 557.8 281.575 558.888 281.575 560.168V569H279.303V552.2H281.479V556.808L281.127 555.944C281.66 554.728 282.514 553.779 283.687 553.096C284.86 552.392 286.258 552.04 287.879 552.04ZM308.416 569.16C306.795 569.16 305.333 568.797 304.032 568.072C302.752 567.325 301.739 566.312 300.992 565.032C300.245 563.731 299.872 562.248 299.872 560.584C299.872 558.899 300.245 557.416 300.992 556.136C301.739 554.856 302.752 553.853 304.032 553.128C305.312 552.403 306.773 552.04 308.416 552.04C310.08 552.04 311.552 552.403 312.832 553.128C314.133 553.853 315.147 554.856 315.872 556.136C316.619 557.416 316.992 558.899 316.992 560.584C316.992 562.248 316.619 563.731 315.872 565.032C315.147 566.312 314.133 567.325 312.832 568.072C311.531 568.797 310.059 569.16 308.416 569.16ZM308.416 567.144C309.632 567.144 310.709 566.877 311.648 566.344C312.587 565.789 313.323 565.021 313.856 564.04C314.411 563.037 314.688 561.885 314.688 560.584C314.688 559.261 314.411 558.109 313.856 557.128C313.323 556.147 312.587 555.389 311.648 554.856C310.709 554.301 309.643 554.024 308.448 554.024C307.253 554.024 306.187 554.301 305.248 554.856C304.309 555.389 303.563 556.147 303.008 557.128C302.453 558.109 302.176 559.261 302.176 560.584C302.176 561.885 302.453 563.037 303.008 564.04C303.563 565.021 304.309 565.789 305.248 566.344C306.187 566.877 307.243 567.144 308.416 567.144ZM326.782 569.16C325.396 569.16 324.084 568.968 322.846 568.584C321.609 568.179 320.638 567.677 319.934 567.08L320.958 565.288C321.641 565.8 322.516 566.248 323.582 566.632C324.649 566.995 325.769 567.176 326.942 567.176C328.542 567.176 329.694 566.931 330.398 566.44C331.102 565.928 331.454 565.256 331.454 564.424C331.454 563.805 331.252 563.325 330.846 562.984C330.462 562.621 329.95 562.355 329.31 562.184C328.67 561.992 327.956 561.832 327.166 561.704C326.377 561.576 325.588 561.427 324.798 561.256C324.03 561.085 323.326 560.84 322.686 560.52C322.046 560.179 321.524 559.72 321.118 559.144C320.734 558.568 320.542 557.8 320.542 556.84C320.542 555.923 320.798 555.101 321.31 554.376C321.822 553.651 322.569 553.085 323.55 552.68C324.553 552.253 325.769 552.04 327.198 552.04C328.286 552.04 329.374 552.189 330.462 552.488C331.55 552.765 332.446 553.139 333.15 553.608L332.158 555.432C331.412 554.92 330.612 554.557 329.758 554.344C328.905 554.109 328.052 553.992 327.198 553.992C325.684 553.992 324.564 554.259 323.838 554.792C323.134 555.304 322.782 555.965 322.782 556.776C322.782 557.416 322.974 557.917 323.358 558.28C323.764 558.643 324.286 558.931 324.926 559.144C325.588 559.336 326.302 559.496 327.07 559.624C327.86 559.752 328.638 559.912 329.406 560.104C330.196 560.275 330.91 560.52 331.55 560.84C332.212 561.139 332.734 561.576 333.118 562.152C333.524 562.707 333.726 563.443 333.726 564.36C333.726 565.341 333.449 566.195 332.894 566.92C332.361 567.624 331.572 568.179 330.526 568.584C329.502 568.968 328.254 569.16 326.782 569.16ZM354.527 569.16C352.863 569.16 351.369 568.797 350.047 568.072C348.745 567.325 347.721 566.312 346.975 565.032C346.228 563.731 345.855 562.248 345.855 560.584C345.855 558.899 346.228 557.416 346.975 556.136C347.721 554.856 348.745 553.853 350.047 553.128C351.369 552.403 352.863 552.04 354.527 552.04C355.956 552.04 357.247 552.317 358.399 552.872C359.551 553.427 360.457 554.259 361.119 555.368L359.423 556.52C358.847 555.667 358.132 555.037 357.279 554.632C356.425 554.227 355.497 554.024 354.495 554.024C353.3 554.024 352.223 554.301 351.263 554.856C350.303 555.389 349.545 556.147 348.991 557.128C348.436 558.109 348.159 559.261 348.159 560.584C348.159 561.907 348.436 563.059 348.991 564.04C349.545 565.021 350.303 565.789 351.263 566.344C352.223 566.877 353.3 567.144 354.495 567.144C355.497 567.144 356.425 566.941 357.279 566.536C358.132 566.131 358.847 565.512 359.423 564.68L361.119 565.832C360.457 566.92 359.551 567.752 358.399 568.328C357.247 568.883 355.956 569.16 354.527 569.16ZM376.75 569V565.288L376.654 564.68V558.472C376.654 557.043 376.248 555.944 375.438 555.176C374.648 554.408 373.464 554.024 371.886 554.024C370.798 554.024 369.763 554.205 368.782 554.568C367.8 554.931 366.968 555.411 366.286 556.008L365.262 554.312C366.115 553.587 367.139 553.032 368.334 552.648C369.528 552.243 370.787 552.04 372.11 552.04C374.286 552.04 375.96 552.584 377.134 553.672C378.328 554.739 378.926 556.371 378.926 558.568V569H376.75ZM370.958 569.16C369.699 569.16 368.6 568.957 367.662 568.552C366.744 568.125 366.04 567.549 365.55 566.824C365.059 566.077 364.814 565.224 364.814 564.264C364.814 563.389 365.016 562.6 365.422 561.896C365.848 561.171 366.531 560.595 367.47 560.168C368.43 559.72 369.71 559.496 371.31 559.496H377.102V561.192H371.374C369.752 561.192 368.622 561.48 367.982 562.056C367.363 562.632 367.054 563.347 367.054 564.2C367.054 565.16 367.427 565.928 368.174 566.504C368.92 567.08 369.966 567.368 371.31 567.368C372.59 567.368 373.688 567.08 374.606 566.504C375.544 565.907 376.227 565.053 376.654 563.944L377.166 565.512C376.739 566.621 375.992 567.507 374.926 568.168C373.88 568.829 372.558 569.16 370.958 569.16ZM392.425 569.16C390.825 569.16 389.385 568.797 388.105 568.072C386.846 567.347 385.854 566.344 385.129 565.064C384.403 563.763 384.041 562.269 384.041 560.584C384.041 558.877 384.403 557.384 385.129 556.104C385.854 554.824 386.846 553.832 388.105 553.128C389.385 552.403 390.825 552.04 392.425 552.04C393.897 552.04 395.209 552.371 396.361 553.032C397.534 553.693 398.462 554.664 399.145 555.944C399.849 557.203 400.201 558.749 400.201 560.584C400.201 562.397 399.859 563.944 399.177 565.224C398.494 566.504 397.566 567.485 396.393 568.168C395.241 568.829 393.918 569.16 392.425 569.16ZM392.585 567.144C393.779 567.144 394.846 566.877 395.785 566.344C396.745 565.789 397.491 565.021 398.025 564.04C398.579 563.037 398.857 561.885 398.857 560.584C398.857 559.261 398.579 558.109 398.025 557.128C397.491 556.147 396.745 555.389 395.785 554.856C394.846 554.301 393.779 554.024 392.585 554.024C391.411 554.024 390.355 554.301 389.417 554.856C388.478 555.389 387.731 556.147 387.177 557.128C386.622 558.109 386.345 559.261 386.345 560.584C386.345 561.885 386.622 563.037 387.177 564.04C387.731 565.021 388.478 565.789 389.417 566.344C390.355 566.877 391.411 567.144 392.585 567.144ZM398.921 569V563.944L399.145 560.552L398.825 557.16V545.256H401.097V569H398.921ZM418.592 569V565.288L418.496 564.68V558.472C418.496 557.043 418.091 555.944 417.28 555.176C416.491 554.408 415.307 554.024 413.728 554.024C412.64 554.024 411.606 554.205 410.624 554.568C409.643 554.931 408.811 555.411 408.128 556.008L407.104 554.312C407.958 553.587 408.982 553.032 410.176 552.648C411.371 552.243 412.63 552.04 413.952 552.04C416.128 552.04 417.803 552.584 418.976 553.672C420.171 554.739 420.768 556.371 420.768 558.568V569H418.592ZM412.8 569.16C411.542 569.16 410.443 568.957 409.504 568.552C408.587 568.125 407.883 567.549 407.392 566.824C406.902 566.077 406.656 565.224 406.656 564.264C406.656 563.389 406.859 562.6 407.264 561.896C407.691 561.171 408.374 560.595 409.312 560.168C410.272 559.72 411.552 559.496 413.152 559.496H418.944V561.192H413.216C411.595 561.192 410.464 561.48 409.824 562.056C409.206 562.632 408.896 563.347 408.896 564.2C408.896 565.16 409.27 565.928 410.016 566.504C410.763 567.08 411.808 567.368 413.152 567.368C414.432 567.368 415.531 567.08 416.448 566.504C417.387 565.907 418.07 565.053 418.496 563.944L419.008 565.512C418.582 566.621 417.835 567.507 416.768 568.168C415.723 568.829 414.4 569.16 412.8 569.16ZM432.091 569.16C430.705 569.16 429.393 568.968 428.155 568.584C426.918 568.179 425.947 567.677 425.243 567.08L426.267 565.288C426.95 565.8 427.825 566.248 428.891 566.632C429.958 566.995 431.078 567.176 432.251 567.176C433.851 567.176 435.003 566.931 435.707 566.44C436.411 565.928 436.763 565.256 436.763 564.424C436.763 563.805 436.561 563.325 436.155 562.984C435.771 562.621 435.259 562.355 434.619 562.184C433.979 561.992 433.265 561.832 432.475 561.704C431.686 561.576 430.897 561.427 430.107 561.256C429.339 561.085 428.635 560.84 427.995 560.52C427.355 560.179 426.833 559.72 426.427 559.144C426.043 558.568 425.851 557.8 425.851 556.84C425.851 555.923 426.107 555.101 426.619 554.376C427.131 553.651 427.878 553.085 428.859 552.68C429.862 552.253 431.078 552.04 432.507 552.04C433.595 552.04 434.683 552.189 435.771 552.488C436.859 552.765 437.755 553.139 438.459 553.608L437.467 555.432C436.721 554.92 435.921 554.557 435.067 554.344C434.214 554.109 433.361 553.992 432.507 553.992C430.993 553.992 429.873 554.259 429.147 554.792C428.443 555.304 428.091 555.965 428.091 556.776C428.091 557.416 428.283 557.917 428.667 558.28C429.073 558.643 429.595 558.931 430.235 559.144C430.897 559.336 431.611 559.496 432.379 559.624C433.169 559.752 433.947 559.912 434.715 560.104C435.505 560.275 436.219 560.52 436.859 560.84C437.521 561.139 438.043 561.576 438.427 562.152C438.833 562.707 439.035 563.443 439.035 564.36C439.035 565.341 438.758 566.195 438.203 566.92C437.67 567.624 436.881 568.179 435.835 568.584C434.811 568.968 433.563 569.16 432.091 569.16ZM449.156 569.16C447.578 569.16 446.362 568.733 445.508 567.88C444.655 567.027 444.228 565.821 444.228 564.264V548.488H446.5V564.136C446.5 565.117 446.746 565.875 447.236 566.408C447.748 566.941 448.474 567.208 449.412 567.208C450.415 567.208 451.247 566.92 451.908 566.344L452.708 567.976C452.26 568.381 451.716 568.68 451.076 568.872C450.458 569.064 449.818 569.16 449.156 569.16ZM441.22 554.088V552.2H451.62V554.088H441.22ZM457.484 569V552.2H459.66V556.776L459.436 555.976C459.906 554.696 460.695 553.725 461.804 553.064C462.914 552.381 464.29 552.04 465.932 552.04V554.248C465.847 554.248 465.762 554.248 465.676 554.248C465.591 554.227 465.506 554.216 465.42 554.216C463.65 554.216 462.263 554.76 461.26 555.848C460.258 556.915 459.756 558.44 459.756 560.424V569H457.484ZM479.996 569V565.288L479.9 564.68V558.472C479.9 557.043 479.495 555.944 478.684 555.176C477.895 554.408 476.711 554.024 475.132 554.024C474.044 554.024 473.009 554.205 472.028 554.568C471.047 554.931 470.215 555.411 469.532 556.008L468.508 554.312C469.361 553.587 470.385 553.032 471.58 552.648C472.775 552.243 474.033 552.04 475.356 552.04C477.532 552.04 479.207 552.584 480.38 553.672C481.575 554.739 482.172 556.371 482.172 558.568V569H479.996ZM474.204 569.16C472.945 569.16 471.847 568.957 470.908 568.552C469.991 568.125 469.287 567.549 468.796 566.824C468.305 566.077 468.06 565.224 468.06 564.264C468.06 563.389 468.263 562.6 468.668 561.896C469.095 561.171 469.777 560.595 470.716 560.168C471.676 559.72 472.956 559.496 474.556 559.496H480.348V561.192H474.62C472.999 561.192 471.868 561.48 471.228 562.056C470.609 562.632 470.3 563.347 470.3 564.2C470.3 565.16 470.673 565.928 471.42 566.504C472.167 567.08 473.212 567.368 474.556 567.368C475.836 567.368 476.935 567.08 477.852 566.504C478.791 565.907 479.473 565.053 479.9 563.944L480.412 565.512C479.985 566.621 479.239 567.507 478.172 568.168C477.127 568.829 475.804 569.16 474.204 569.16ZM495.671 569.16C494.071 569.16 492.631 568.797 491.351 568.072C490.092 567.347 489.1 566.344 488.375 565.064C487.65 563.763 487.287 562.269 487.287 560.584C487.287 558.877 487.65 557.384 488.375 556.104C489.1 554.824 490.092 553.832 491.351 553.128C492.631 552.403 494.071 552.04 495.671 552.04C497.143 552.04 498.455 552.371 499.607 553.032C500.78 553.693 501.708 554.664 502.391 555.944C503.095 557.203 503.447 558.749 503.447 560.584C503.447 562.397 503.106 563.944 502.423 565.224C501.74 566.504 500.812 567.485 499.639 568.168C498.487 568.829 497.164 569.16 495.671 569.16ZM495.831 567.144C497.026 567.144 498.092 566.877 499.031 566.344C499.991 565.789 500.738 565.021 501.271 564.04C501.826 563.037 502.103 561.885 502.103 560.584C502.103 559.261 501.826 558.109 501.271 557.128C500.738 556.147 499.991 555.389 499.031 554.856C498.092 554.301 497.026 554.024 495.831 554.024C494.658 554.024 493.602 554.301 492.663 554.856C491.724 555.389 490.978 556.147 490.423 557.128C489.868 558.109 489.591 559.261 489.591 560.584C489.591 561.885 489.868 563.037 490.423 564.04C490.978 565.021 491.724 565.789 492.663 566.344C493.602 566.877 494.658 567.144 495.831 567.144ZM502.167 569V563.944L502.391 560.552L502.071 557.16V545.256H504.343V569H502.167ZM518.158 569.16C516.537 569.16 515.076 568.797 513.774 568.072C512.494 567.325 511.481 566.312 510.734 565.032C509.988 563.731 509.614 562.248 509.614 560.584C509.614 558.899 509.988 557.416 510.734 556.136C511.481 554.856 512.494 553.853 513.774 553.128C515.054 552.403 516.516 552.04 518.158 552.04C519.822 552.04 521.294 552.403 522.574 553.128C523.876 553.853 524.889 554.856 525.614 556.136C526.361 557.416 526.734 558.899 526.734 560.584C526.734 562.248 526.361 563.731 525.614 565.032C524.889 566.312 523.876 567.325 522.574 568.072C521.273 568.797 519.801 569.16 518.158 569.16ZM518.158 567.144C519.374 567.144 520.452 566.877 521.39 566.344C522.329 565.789 523.065 565.021 523.598 564.04C524.153 563.037 524.43 561.885 524.43 560.584C524.43 559.261 524.153 558.109 523.598 557.128C523.065 556.147 522.329 555.389 521.39 554.856C520.452 554.301 519.385 554.024 518.19 554.024C516.996 554.024 515.929 554.301 514.99 554.856C514.052 555.389 513.305 556.147 512.75 557.128C512.196 558.109 511.918 559.261 511.918 560.584C511.918 561.885 512.196 563.037 512.75 564.04C513.305 565.021 514.052 565.789 514.99 566.344C515.929 566.877 516.985 567.144 518.158 567.144ZM536.525 569.16C535.138 569.16 533.826 568.968 532.589 568.584C531.352 568.179 530.381 567.677 529.677 567.08L530.701 565.288C531.384 565.8 532.258 566.248 533.325 566.632C534.392 566.995 535.512 567.176 536.685 567.176C538.285 567.176 539.437 566.931 540.141 566.44C540.845 565.928 541.197 565.256 541.197 564.424C541.197 563.805 540.994 563.325 540.589 562.984C540.205 562.621 539.693 562.355 539.053 562.184C538.413 561.992 537.698 561.832 536.909 561.704C536.12 561.576 535.33 561.427 534.541 561.256C533.773 561.085 533.069 560.84 532.429 560.52C531.789 560.179 531.266 559.72 530.861 559.144C530.477 558.568 530.285 557.8 530.285 556.84C530.285 555.923 530.541 555.101 531.053 554.376C531.565 553.651 532.312 553.085 533.293 552.68C534.296 552.253 535.512 552.04 536.941 552.04C538.029 552.04 539.117 552.189 540.205 552.488C541.293 552.765 542.189 553.139 542.893 553.608L541.901 555.432C541.154 554.92 540.354 554.557 539.501 554.344C538.648 554.109 537.794 553.992 536.941 553.992C535.426 553.992 534.306 554.259 533.581 554.792C532.877 555.304 532.525 555.965 532.525 556.776C532.525 557.416 532.717 557.917 533.101 558.28C533.506 558.643 534.029 558.931 534.669 559.144C535.33 559.336 536.045 559.496 536.813 559.624C537.602 559.752 538.381 559.912 539.149 560.104C539.938 560.275 540.653 560.52 541.293 560.84C541.954 561.139 542.477 561.576 542.861 562.152C543.266 562.707 543.469 563.443 543.469 564.36C543.469 565.341 543.192 566.195 542.637 566.92C542.104 567.624 541.314 568.179 540.269 568.584C539.245 568.968 537.997 569.16 536.525 569.16Z" fill="black"/>
</g>
</svg>
