<?xml version="1.0" encoding="UTF-8" ?>
<!DOCTYPE svg PUBLIC "-//W3C//DTD SVG 1.1//EN" "http://www.w3.org/Graphics/SVG/1.1/DTD/svg11.dtd">
<svg width="1573pt" height="484pt" viewBox="0 0 1573 484" version="1.1" xmlns="http://www.w3.org/2000/svg">
<g id="#c1f0deff">
<path fill="#c1f0de" opacity="1.00" d=" M 144.15 75.45 C 183.25 75.16 222.37 75.88 261.47 75.04 C 249.28 84.69 246.76 103.21 254.23 116.49 C 256.53 120.85 259.99 124.48 263.91 127.45 C 274.18 120.72 281.01 108.35 279.53 95.94 C 278.85 87.77 273.26 81.37 268.28 75.34 C 292.51 75.76 316.77 74.92 340.99 75.71 C 346.57 75.93 347.81 82.55 347.73 87.01 C 347.50 177.81 348.17 268.61 347.92 359.41 C 331.56 339.46 317.30 317.54 307.63 293.54 C 305.57 288.24 302.87 283.18 299.35 278.70 C 298.16 285.50 301.57 291.72 304.21 297.71 C 314.27 321.85 329.09 343.62 345.07 364.19 C 319.14 347.16 297.68 323.74 281.78 297.19 C 280.15 294.51 278.75 291.69 276.88 289.17 C 282.24 321.62 299.00 351.36 320.97 375.51 C 312.55 375.32 304.13 375.29 295.71 375.17 C 280.85 360.77 269.60 342.57 264.11 322.57 C 259.94 336.37 261.79 351.09 264.87 364.92 C 265.50 367.20 265.59 369.77 267.10 371.72 C 252.03 362.34 243.51 345.72 229.37 335.20 C 235.38 352.17 250.15 363.57 263.08 375.19 C 258.69 375.23 254.30 375.25 249.91 375.25 C 230.06 360.06 203.97 358.72 182.05 347.89 C 176.57 345.46 173.43 338.94 166.93 338.68 C 180.66 355.22 198.72 368.38 219.07 375.50 C 195.40 374.93 171.71 375.68 148.04 375.21 C 144.53 375.00 141.04 372.59 140.13 369.11 C 139.67 366.10 139.99 363.04 139.91 360.01 C 139.68 271.67 139.99 183.33 139.77 94.98 C 139.59 88.31 139.02 80.60 144.15 75.45 M 272.36 131.54 C 268.89 139.23 270.69 147.79 272.49 155.66 C 282.28 153.08 292.09 148.62 298.46 140.46 C 306.17 130.86 307.32 117.89 306.74 106.03 C 292.66 109.46 277.56 117.05 272.36 131.54 M 221.99 112.22 C 222.42 124.48 225.54 137.60 234.87 146.23 C 241.48 153.25 251.28 155.40 260.21 157.91 C 260.80 149.30 260.17 140.33 256.35 132.46 C 253.88 127.01 249.42 122.82 244.79 119.19 C 238.17 114.47 229.93 112.90 221.99 112.22 M 279.68 166.49 C 274.55 175.72 275.81 187.09 279.89 196.47 C 289.75 191.42 300.10 185.53 305.54 175.43 C 310.94 166.77 310.82 156.21 310.94 146.38 C 298.68 148.96 285.77 154.91 279.68 166.49 M 221.84 158.31 C 224.85 168.87 229.31 179.79 238.31 186.65 C 246.80 193.28 258.07 194.28 268.46 194.48 C 267.33 184.57 264.39 174.18 256.92 167.12 C 247.59 158.58 234.03 156.15 221.84 158.31 M 288.70 206.42 C 284.71 214.80 287.09 224.37 290.24 232.61 C 295.28 230.52 300.21 228.07 304.72 224.99 C 310.97 221.06 315.36 214.71 317.88 207.86 C 320.66 199.53 319.83 190.60 318.86 182.04 C 306.80 186.90 294.15 193.94 288.70 206.42 M 231.67 198.14 C 234.31 208.50 238.52 219.13 247.04 226.07 C 255.59 233.16 267.19 234.31 277.86 234.96 C 277.70 222.92 272.29 210.65 262.17 203.76 C 253.50 197.24 242.00 197.17 231.67 198.14 M 164.83 228.87 C 163.97 234.59 164.80 240.83 168.25 245.61 C 172.24 251.37 178.71 254.96 185.39 256.68 C 188.43 248.73 191.48 239.79 188.42 231.36 C 185.76 223.41 178.55 218.45 171.94 213.95 C 169.03 218.62 165.96 223.40 164.83 228.87 M 299.77 242.55 C 294.49 251.62 295.04 263.30 299.92 272.42 C 308.66 268.25 317.86 263.58 323.24 255.15 C 330.06 245.37 329.62 232.78 328.55 221.44 C 317.68 226.32 305.96 231.75 299.77 242.55 M 202.92 233.09 C 190.86 244.01 190.91 265.75 203.73 276.06 C 209.52 269.54 217.11 263.36 218.16 254.10 C 219.95 244.69 214.40 236.31 209.92 228.58 C 207.44 229.85 204.96 231.17 202.92 233.09 M 245.94 239.33 C 247.45 250.93 253.96 261.78 263.60 268.44 C 271.92 274.45 282.40 277.19 292.60 276.25 C 291.49 267.75 289.60 258.79 283.93 252.07 C 280.52 248.34 276.74 244.80 272.13 242.63 C 264.01 238.80 254.74 238.28 245.94 239.33 M 220.50 263.49 C 210.28 275.66 209.47 295.19 220.31 307.25 C 227.18 300.73 235.58 294.16 237.22 284.24 C 239.15 274.08 234.84 264.15 230.03 255.45 C 226.46 257.62 223.16 260.25 220.50 263.49 M 152.98 260.51 C 154.59 267.36 157.28 274.57 163.36 278.68 C 172.17 285.78 184.56 284.62 194.70 281.41 C 193.40 275.11 190.03 269.18 184.83 265.31 C 175.88 258.50 163.55 256.95 152.98 260.51 M 164.33 293.02 C 167.69 301.45 173.57 309.41 182.26 312.80 C 192.12 317.79 203.60 314.09 212.55 308.88 C 208.10 301.09 201.83 293.68 193.14 290.57 C 183.75 286.90 173.27 289.11 164.33 293.02 M 232.35 304.37 C 226.86 311.95 228.58 321.84 229.76 330.47 C 238.06 327.53 248.23 324.58 251.72 315.53 C 255.50 308.04 253.54 299.48 252.15 291.65 C 244.47 293.71 236.70 297.40 232.35 304.37 M 179.97 331.03 C 182.35 335.36 186.07 338.93 190.41 341.29 C 202.43 348.01 219.58 344.92 227.11 332.95 C 220.96 327.17 213.86 321.26 205.04 320.75 C 195.54 319.46 186.70 324.90 179.97 331.03 Z" />
<path fill="#c1f0de" opacity="1.00" d=" M 427.54 78.78 C 432.48 78.79 437.43 78.80 442.38 78.78 C 460.20 127.50 477.96 176.24 495.75 224.97 C 490.81 224.97 485.87 224.97 480.94 224.98 C 475.93 211.30 470.93 197.63 465.91 183.97 C 445.63 183.97 425.35 183.97 405.07 183.97 C 400.55 197.62 396.04 211.29 391.56 224.96 C 386.25 224.98 380.94 224.97 375.64 224.96 C 392.97 176.24 410.19 127.49 427.54 78.78 M 409.90 170.89 C 426.96 170.91 444.03 170.93 461.09 170.88 C 452.34 147.11 443.67 123.31 434.78 99.59 C 426.22 123.26 418.17 147.11 409.90 170.89 Z" />
<path fill="#c1f0de" opacity="1.00" d=" M 803.52 78.79 C 808.81 78.79 814.10 78.80 819.39 78.78 C 833.91 121.62 848.24 164.53 862.80 207.35 C 877.66 164.56 892.16 121.64 906.88 78.79 C 912.03 78.79 917.18 78.80 922.34 78.79 C 905.38 127.50 888.29 176.17 871.41 224.92 C 865.70 225.03 859.99 224.95 854.29 224.97 C 837.39 176.23 820.44 127.51 803.52 78.79 Z" />
<path fill="#c1f0de" opacity="1.00" d=" M 947.37 82.58 C 954.26 79.94 962.65 85.61 962.64 93.00 C 963.11 99.32 957.35 105.22 951.04 105.01 C 945.44 105.13 940.27 100.56 939.78 94.97 C 938.83 89.66 942.29 84.21 947.37 82.58 Z" />
<path fill="#c1f0de" opacity="1.00" d=" M 523.00 133.06 C 533.96 123.15 549.73 119.42 564.11 122.14 C 574.87 124.27 584.20 130.99 590.85 139.55 C 590.87 134.60 590.84 129.66 590.86 124.71 C 595.65 124.71 600.44 124.71 605.23 124.71 C 605.22 154.14 605.23 183.56 605.23 212.99 C 605.20 220.02 605.55 227.16 603.82 234.04 C 601.02 246.35 592.99 257.65 581.54 263.29 C 575.22 266.53 568.07 267.91 561.00 267.97 C 547.17 267.98 533.35 267.96 519.52 267.97 C 519.53 263.59 519.52 259.20 519.53 254.81 C 533.34 254.81 547.15 254.83 560.96 254.81 C 566.64 254.81 572.43 253.43 577.12 250.13 C 583.50 245.64 588.02 238.66 589.75 231.07 C 591.39 224.22 590.72 217.13 590.86 210.17 C 585.25 217.37 577.99 223.62 569.14 226.36 C 552.45 231.59 532.95 226.83 520.76 214.21 C 510.39 203.70 505.54 188.65 505.88 174.07 C 505.71 158.86 511.45 143.25 523.00 133.06 M 545.45 135.68 C 532.54 139.33 523.59 151.48 521.14 164.30 C 519.10 175.66 520.12 188.00 525.94 198.15 C 530.37 206.16 538.12 212.45 547.12 214.45 C 556.39 216.55 566.68 215.17 574.56 209.66 C 588.82 200.09 593.06 180.99 590.02 164.92 C 588.24 155.20 583.09 145.86 574.83 140.21 C 566.43 134.25 555.25 132.92 545.45 135.68 Z" />
<path fill="#c1f0de" opacity="1.00" d=" M 665.92 124.89 C 673.75 120.93 683.06 120.31 691.47 122.69 C 691.48 127.04 691.44 131.40 691.51 135.75 C 682.35 131.95 671.53 133.86 663.55 139.49 C 652.54 147.22 647.09 160.91 646.86 174.06 C 646.66 191.03 646.82 208.00 646.78 224.97 C 641.98 224.96 637.18 224.97 632.38 224.97 C 632.40 191.55 632.37 158.13 632.40 124.71 C 637.19 124.71 641.98 124.71 646.77 124.71 C 646.78 131.45 646.73 138.18 646.81 144.92 C 651.26 136.74 657.42 129.07 665.92 124.89 Z" />
<path fill="#c1f0de" opacity="1.00" d=" M 738.64 121.78 C 751.42 120.04 765.04 122.67 775.48 130.49 C 789.11 140.37 796.24 157.44 796.13 174.01 C 796.56 190.48 790.19 207.70 777.08 218.14 C 758.97 232.79 730.19 231.76 713.24 215.74 C 701.56 204.97 696.26 188.64 696.81 173.02 C 696.86 157.88 702.87 142.45 714.54 132.52 C 721.29 126.66 729.80 122.98 738.64 121.78 M 735.53 135.93 C 723.10 139.90 714.50 151.67 712.11 164.18 C 709.88 176.04 711.16 189.04 717.63 199.44 C 722.30 207.07 730.05 212.92 738.90 214.66 C 747.32 216.29 756.44 215.21 763.84 210.70 C 773.15 205.27 779.02 195.23 780.93 184.80 C 782.71 174.67 781.93 163.87 777.60 154.45 C 773.64 145.88 766.22 138.84 757.17 135.95 C 750.17 133.81 742.52 133.74 735.53 135.93 Z" />
<path fill="#c1f0de" opacity="1.00" d=" M 1001.22 136.16 C 1017.57 118.04 1048.44 116.14 1066.91 132.07 C 1080.15 143.02 1085.93 160.94 1084.33 177.75 C 1056.74 177.77 1029.14 177.73 1001.55 177.77 C 1002.25 189.87 1007.41 202.22 1017.37 209.56 C 1026.46 216.11 1038.51 216.26 1049.08 214.02 C 1058.70 212.00 1066.88 205.40 1071.97 197.13 C 1075.78 199.67 1079.59 202.21 1083.40 204.75 C 1076.70 215.03 1066.44 223.18 1054.47 226.28 C 1040.04 230.03 1023.71 229.33 1010.85 221.20 C 998.18 213.46 990.09 199.52 987.97 184.99 C 985.44 167.91 989.06 149.01 1001.22 136.16 M 1018.53 139.46 C 1009.61 145.40 1004.21 155.52 1002.43 165.92 C 1024.99 165.96 1047.55 165.95 1070.11 165.93 C 1069.03 158.76 1067.04 151.46 1062.52 145.65 C 1058.30 140.12 1051.92 136.41 1045.10 135.18 C 1036.14 133.53 1026.28 134.30 1018.53 139.46 Z" />
<path fill="#c1f0de" opacity="1.00" d=" M 943.98 124.71 C 948.79 124.71 953.60 124.71 958.42 124.71 C 958.41 158.13 958.40 191.55 958.42 224.97 C 953.60 224.96 948.79 224.97 943.97 224.97 C 943.98 191.55 943.97 158.13 943.98 124.71 Z" />
<path fill="#c1f0de" opacity="1.00" d=" M 1091.95 124.70 C 1097.03 124.71 1102.12 124.71 1107.21 124.71 C 1115.75 151.10 1124.16 177.55 1132.81 203.91 C 1132.92 203.92 1133.14 203.94 1133.25 203.95 C 1142.01 177.57 1150.60 151.13 1159.26 124.72 C 1163.93 124.71 1168.60 124.72 1173.28 124.70 C 1181.78 151.19 1190.14 177.72 1198.67 204.19 C 1207.33 177.74 1215.75 151.21 1224.28 124.72 C 1228.87 124.70 1233.46 124.71 1238.05 124.71 C 1227.20 158.12 1216.33 191.53 1205.52 224.95 C 1200.47 224.99 1195.42 224.96 1190.38 224.97 C 1182.21 199.29 1174.14 173.58 1165.88 147.93 C 1156.92 173.54 1148.22 199.24 1139.46 224.91 C 1134.61 225.02 1129.77 224.95 1124.94 224.97 C 1113.94 191.55 1102.96 158.12 1091.95 124.70 Z" />
<path fill="#c1f0de" opacity="1.00" d=" M 620.20 303.15 C 624.95 302.69 628.35 307.32 633.01 307.25 C 635.53 307.37 636.95 305.02 638.71 303.66 C 638.00 306.77 636.74 310.92 632.99 311.38 C 628.48 311.72 625.21 307.77 620.94 307.13 C 617.94 306.87 616.37 309.62 614.65 311.53 C 615.25 308.27 616.37 303.84 620.20 303.15 Z" />
<path fill="#c1f0de" opacity="1.00" d=" M 404.56 307.64 C 415.36 305.49 426.99 307.24 436.32 313.23 C 436.80 317.90 437.95 322.52 437.90 327.24 C 436.05 321.18 432.44 315.36 426.59 312.47 C 417.31 307.90 405.16 308.25 396.93 314.89 C 390.53 319.98 386.98 327.95 386.11 335.96 C 385.22 344.30 386.08 353.16 390.36 360.54 C 393.61 366.31 399.07 370.90 405.51 372.64 C 415.33 375.29 426.47 372.77 434.06 365.95 C 435.21 365.01 434.57 363.26 434.80 362.00 C 434.71 357.05 435.06 352.08 434.73 347.14 C 434.28 343.56 430.04 344.22 427.53 343.24 C 434.21 342.87 440.94 343.06 447.64 343.12 C 445.42 344.40 441.28 343.53 440.92 346.95 C 440.62 352.66 440.87 358.40 440.82 364.13 C 430.63 376.95 411.45 379.54 397.05 372.92 C 388.15 368.74 381.54 360.17 379.67 350.53 C 377.85 340.92 378.65 330.35 383.93 321.90 C 388.43 314.54 396.17 309.43 404.56 307.64 Z" />
<path fill="#c1f0de" opacity="1.00" d=" M 832.29 306.46 C 841.37 308.72 850.78 307.87 860.04 308.03 C 869.26 307.88 878.63 308.70 887.68 306.47 C 887.67 310.54 887.67 314.61 887.50 318.68 C 886.73 315.82 886.37 312.00 882.96 311.13 C 876.36 310.21 869.65 310.88 863.01 310.74 C 863.00 329.16 863.03 347.59 862.99 366.01 C 863.04 368.18 863.04 370.68 864.68 372.35 C 866.29 374.28 869.04 374.01 871.26 374.70 C 863.76 375.24 856.18 375.24 848.69 374.69 C 852.58 374.56 857.10 372.52 856.88 367.97 C 857.08 348.90 856.91 329.82 856.96 310.75 C 850.35 310.85 843.69 310.26 837.12 311.09 C 833.53 311.79 833.25 315.83 832.45 318.70 C 832.29 314.62 832.25 310.54 832.29 306.46 Z" />
<path fill="#c1f0de" opacity="1.00" d=" M 453.36 317.98 C 466.35 316.76 479.61 319.14 492.46 316.32 C 492.43 319.83 492.40 323.35 492.39 326.87 C 492.22 326.87 491.89 326.88 491.72 326.89 C 491.57 324.25 490.67 320.84 487.49 320.63 C 480.56 320.24 473.60 320.57 466.67 320.48 C 466.65 328.66 466.63 336.85 466.68 345.03 C 472.50 344.91 478.35 345.28 484.16 344.84 C 487.08 344.61 486.78 340.99 487.93 339.06 C 488.12 343.70 487.85 348.35 488.01 353.00 L 487.25 353.00 C 487.01 350.97 486.66 347.88 483.92 347.94 C 478.19 347.40 472.41 347.80 466.66 347.73 C 466.64 355.90 466.65 364.06 466.66 372.23 C 473.62 372.12 480.70 372.75 487.57 371.47 C 492.83 370.13 495.08 364.93 497.84 360.85 C 496.14 365.63 494.67 370.69 492.22 375.07 C 479.23 375.17 466.23 375.05 453.24 374.94 C 455.26 374.09 457.85 374.20 459.36 372.42 C 460.77 371.00 460.65 368.90 460.74 367.07 C 460.73 353.37 460.73 339.67 460.74 325.96 C 460.63 324.11 460.84 321.99 459.59 320.47 C 458.13 318.51 455.46 318.64 453.36 317.98 Z" />
<path fill="#c1f0de" opacity="1.00" d=" M 546.50 316.18 C 549.62 316.87 552.78 317.59 556.01 317.54 C 567.03 317.56 578.06 317.53 589.08 317.55 C 592.45 317.63 595.76 316.89 599.03 316.18 C 598.91 319.96 599.36 323.81 598.52 327.52 C 598.00 324.94 597.93 321.27 594.71 320.57 C 588.45 319.98 582.13 320.46 575.85 320.31 C 575.82 335.86 575.85 351.41 575.82 366.97 C 575.92 368.68 575.69 370.68 576.96 372.06 C 578.39 374.16 581.15 374.03 583.34 374.73 C 576.38 375.29 569.39 375.02 562.42 374.95 C 565.62 374.17 569.93 372.91 569.71 368.78 C 569.90 352.63 569.75 336.47 569.77 320.32 C 563.54 320.42 557.28 320.03 551.07 320.54 C 547.67 321.00 547.55 324.90 546.89 327.53 C 546.26 323.78 546.61 319.96 546.50 316.18 Z" />
<path fill="#c1f0de" opacity="1.00" d=" M 608.34 354.20 C 614.06 341.38 620.74 328.97 625.59 315.79 C 633.73 333.53 641.51 351.44 649.84 369.08 C 651.17 372.73 654.88 374.15 658.39 374.80 C 651.45 375.24 644.49 374.98 637.55 374.99 C 639.71 374.09 643.16 373.17 642.58 370.11 C 641.35 365.06 638.84 360.42 637.01 355.57 C 628.92 355.55 620.83 355.57 612.75 355.56 C 611.05 359.37 609.40 363.21 607.83 367.08 C 607.28 368.62 606.59 370.28 607.11 371.93 C 608.06 373.91 610.46 374.12 612.27 374.95 C 605.71 375.01 599.15 375.22 592.60 374.83 C 595.23 373.97 598.49 373.67 600.07 371.04 C 603.36 365.71 605.58 359.81 608.34 354.20 M 624.72 327.04 C 621.00 335.63 617.35 344.25 613.82 352.92 C 621.18 352.91 628.55 352.95 635.92 352.89 C 632.47 344.26 628.96 335.65 625.33 327.09 C 625.18 327.08 624.87 327.05 624.72 327.04 Z" />
<path fill="#c1f0de" opacity="1.00" d=" M 758.61 317.94 C 771.69 316.77 785.06 319.18 797.97 316.29 C 797.77 320.04 798.44 323.89 797.53 327.57 C 796.95 325.01 796.82 321.22 793.51 320.71 C 786.45 320.15 779.33 320.61 772.26 320.49 C 772.24 328.67 772.22 336.85 772.27 345.03 C 778.13 344.89 784.03 345.32 789.88 344.82 C 792.60 344.47 792.39 341.15 793.35 339.19 C 793.62 343.97 793.65 348.77 793.35 353.55 C 792.54 351.75 792.53 349.42 790.83 348.19 C 784.70 347.18 778.43 347.89 772.25 347.74 C 772.24 355.90 772.24 364.06 772.25 372.23 C 779.01 372.18 785.83 372.60 792.54 371.64 C 798.10 370.52 800.65 365.18 803.33 360.82 C 802.05 365.74 799.82 370.35 798.12 375.14 C 784.96 374.97 771.77 375.31 758.62 374.77 C 760.64 374.08 763.18 374.31 764.75 372.63 C 766.25 371.19 766.20 368.93 766.33 367.02 C 766.34 353.36 766.32 339.71 766.34 326.05 C 766.17 324.10 766.41 321.81 765.01 320.26 C 763.39 318.43 760.76 318.59 758.61 317.94 Z" />
<path fill="#c1f0de" opacity="1.00" d=" M 894.47 317.99 C 907.43 316.72 920.68 319.17 933.50 316.31 C 933.45 319.83 933.47 323.34 933.46 326.86 C 933.28 326.88 932.91 326.91 932.72 326.92 C 932.72 324.25 931.76 320.83 928.57 320.64 C 921.65 320.25 914.70 320.56 907.78 320.49 C 907.79 328.67 907.75 336.85 907.80 345.03 C 913.57 344.92 919.36 345.25 925.12 344.87 C 928.16 344.72 927.90 341.16 928.59 339.03 C 929.43 343.64 928.92 348.35 929.04 353.00 L 928.40 353.00 C 928.06 350.98 927.75 347.85 925.00 347.93 C 919.29 347.40 913.52 347.83 907.79 347.71 C 907.76 355.89 907.77 364.07 907.79 372.25 C 914.72 372.10 921.77 372.74 928.62 371.49 C 933.94 370.14 936.24 364.87 938.99 360.72 C 937.51 365.60 935.38 370.26 933.71 375.07 C 920.60 375.15 907.48 375.07 894.38 374.94 C 897.40 374.16 901.67 373.34 901.67 369.36 C 902.10 356.92 901.72 344.44 901.85 331.99 C 901.73 328.36 902.27 324.63 901.17 321.11 C 899.84 318.66 896.82 318.62 894.47 317.99 Z" />
<path fill="#c1f0de" opacity="1.00" d=" M 1399.49 351.37 C 1404.79 339.52 1410.90 328.02 1415.45 315.85 C 1420.81 327.72 1426.19 339.59 1431.55 351.47 C 1434.69 357.96 1437.13 364.82 1440.86 371.03 C 1442.40 373.70 1445.66 373.97 1448.32 374.84 C 1441.39 375.19 1434.45 375.01 1427.52 374.98 C 1429.62 374.03 1433.03 373.11 1432.44 370.07 C 1431.13 365.07 1428.67 360.46 1426.88 355.62 C 1418.73 355.52 1410.58 355.52 1402.43 355.63 C 1400.89 359.58 1399.08 363.43 1397.54 367.39 C 1397.16 368.82 1396.18 370.42 1396.99 371.88 C 1397.69 373.97 1400.20 373.96 1401.93 374.74 C 1395.46 375.19 1388.94 375.17 1382.48 374.82 C 1385.12 373.97 1388.38 373.61 1389.94 370.97 C 1393.68 364.72 1396.26 357.88 1399.49 351.37 M 1414.84 326.30 C 1411.07 335.15 1407.23 343.97 1403.66 352.91 C 1411.00 352.93 1418.35 352.93 1425.70 352.90 C 1422.26 343.96 1418.53 335.14 1414.84 326.30 Z" />
<path fill="#c1f0de" opacity="1.00" d=" M 512.84 319.76 C 519.44 314.51 528.29 316.80 535.94 317.37 C 535.91 321.01 536.07 324.65 535.94 328.29 C 534.64 325.62 534.17 322.11 531.23 320.63 C 525.80 317.91 518.28 318.44 514.08 323.15 C 511.05 326.70 511.99 332.56 515.54 335.42 C 521.99 340.67 528.73 345.55 535.23 350.75 C 539.05 353.81 540.27 359.24 539.56 363.90 C 538.03 371.79 529.76 376.95 522.00 376.39 C 516.65 375.96 510.58 375.51 506.42 371.73 C 505.81 367.63 506.07 363.20 507.97 359.45 C 508.39 362.77 508.38 366.50 510.70 369.20 C 514.29 373.82 520.88 374.35 526.20 373.13 C 530.22 372.27 534.00 369.14 534.55 364.89 C 535.18 361.29 533.89 357.36 530.95 355.11 C 524.60 350.07 518.04 345.30 511.74 340.22 C 505.64 335.01 506.24 324.31 512.84 319.76 Z" />
<path fill="#c1f0de" opacity="1.00" d=" M 683.38 317.60 C 693.46 314.93 704.82 316.55 713.36 322.70 C 726.73 331.82 729.23 352.59 718.86 364.87 C 709.60 376.27 692.62 379.17 679.33 373.84 C 671.40 370.63 664.76 364.03 662.17 355.80 C 659.49 347.18 660.53 337.25 665.73 329.75 C 669.79 323.62 676.37 319.51 683.38 317.60 M 686.53 319.74 C 683.47 320.58 680.50 321.89 677.98 323.83 C 663.99 334.33 664.00 358.47 678.02 368.94 C 687.11 375.82 701.10 375.35 709.56 367.64 C 722.21 356.41 721.40 333.26 707.45 323.40 C 701.46 319.13 693.60 318.08 686.53 319.74 Z" />
<path fill="#c1f0de" opacity="1.00" d=" M 952.06 328.02 C 956.66 321.51 964.34 317.76 972.12 316.77 C 981.85 315.54 992.09 317.17 1000.64 322.11 C 1001.28 326.81 1002.29 331.46 1002.64 336.20 C 1000.95 332.40 999.80 328.17 996.61 325.29 C 991.12 320.17 983.17 318.67 975.90 319.12 C 968.85 319.51 961.91 323.08 958.05 329.09 C 953.14 336.63 952.60 346.27 954.39 354.88 C 955.95 362.31 961.13 369.07 968.32 371.78 C 974.55 374.15 981.53 374.01 987.93 372.40 C 994.40 370.80 1000.28 366.35 1002.91 360.15 C 1004.34 357.08 1004.39 353.62 1005.48 350.45 C 1005.31 355.12 1005.19 359.88 1004.27 364.45 C 1000.33 370.35 993.64 373.93 986.86 375.49 C 977.90 377.34 968.11 376.41 960.07 371.87 C 953.21 367.99 948.57 360.80 947.33 353.07 C 945.99 344.56 946.90 335.18 952.06 328.02 Z" />
<path fill="#c1f0de" opacity="1.00" d=" M 1018.99 315.84 C 1036.21 331.30 1052.68 347.62 1069.74 363.28 C 1069.68 350.04 1069.87 336.79 1069.65 323.56 C 1069.82 319.45 1065.37 318.33 1062.17 317.97 C 1068.50 317.51 1074.92 317.47 1081.25 318.00 C 1078.31 318.45 1073.95 319.10 1073.93 322.93 C 1073.53 330.95 1073.88 339.00 1073.77 347.03 C 1073.81 357.00 1073.48 366.99 1074.46 376.93 C 1057.67 360.95 1040.82 345.04 1024.02 329.08 C 1023.79 342.75 1023.93 356.44 1024.07 370.11 C 1024.42 373.81 1028.65 374.23 1031.55 374.60 C 1025.20 375.29 1018.73 375.22 1012.38 374.74 C 1015.78 374.46 1020.15 373.06 1019.74 368.80 C 1019.58 351.16 1020.61 333.43 1018.99 315.84 Z" />
<path fill="#c1f0de" opacity="1.00" d=" M 1113.13 317.13 C 1123.18 315.07 1134.28 317.13 1142.36 323.62 C 1154.73 333.08 1156.67 352.88 1146.75 364.76 C 1135.47 378.71 1112.66 380.20 1098.99 368.97 C 1088.18 360.42 1085.44 343.90 1092.15 332.02 C 1096.37 324.13 1104.50 318.92 1113.13 317.13 M 1114.49 319.72 C 1109.99 320.84 1105.80 323.28 1102.61 326.64 C 1092.04 338.16 1092.92 358.82 1105.44 368.61 C 1114.57 375.92 1128.90 375.39 1137.53 367.50 C 1149.88 356.26 1149.23 333.45 1135.47 323.59 C 1129.52 319.19 1121.60 318.08 1114.49 319.72 Z" />
<path fill="#c1f0de" opacity="1.00" d=" M 1161.39 317.96 C 1168.34 317.47 1175.36 317.57 1182.33 317.92 C 1179.83 318.63 1176.58 318.71 1175.27 321.36 C 1174.63 323.49 1174.67 325.74 1174.66 327.94 C 1174.71 342.71 1174.65 357.47 1174.69 372.24 C 1181.66 372.11 1188.74 372.75 1195.62 371.46 C 1200.87 370.11 1203.11 364.91 1205.88 360.83 C 1204.36 365.56 1202.53 370.19 1200.63 374.77 C 1196.90 375.64 1192.82 374.93 1188.96 375.13 C 1179.74 374.71 1170.47 375.53 1161.27 374.69 C 1163.24 373.95 1165.87 374.31 1167.32 372.49 C 1168.99 370.76 1168.66 368.16 1168.78 365.96 C 1168.68 351.94 1168.91 337.90 1168.67 323.88 C 1168.89 319.89 1164.61 318.38 1161.39 317.96 Z" />
<path fill="#c1f0de" opacity="1.00" d=" M 1234.50 317.72 C 1248.10 313.80 1264.66 318.30 1272.40 330.67 C 1278.82 340.83 1278.26 355.12 1270.68 364.52 C 1261.39 376.31 1243.94 379.30 1230.46 373.66 C 1222.40 370.29 1215.75 363.35 1213.42 354.85 C 1211.28 346.96 1212.09 338.11 1216.42 331.08 C 1220.34 324.42 1227.13 319.78 1234.50 317.72 M 1238.45 319.65 C 1235.10 320.42 1231.94 321.96 1229.24 324.08 C 1215.96 334.31 1215.66 356.92 1228.20 367.85 C 1237.16 375.76 1251.87 375.71 1260.87 367.88 C 1273.58 356.80 1273.08 333.78 1259.38 323.69 C 1253.47 319.24 1245.57 318.11 1238.45 319.65 Z" />
<path fill="#c1f0de" opacity="1.00" d=" M 1292.84 326.86 C 1298.62 319.72 1308.01 316.39 1317.02 316.39 C 1325.02 316.14 1333.08 317.98 1340.03 322.02 C 1340.74 326.73 1341.80 331.42 1341.98 336.21 C 1340.10 330.36 1337.14 324.22 1331.16 321.65 C 1321.79 317.64 1309.70 317.75 1301.72 324.70 C 1295.16 330.44 1292.81 339.59 1293.25 348.04 C 1293.40 357.15 1297.64 366.83 1306.11 371.05 C 1316.72 376.10 1330.92 373.89 1338.94 365.13 C 1339.07 360.40 1339.17 355.65 1338.92 350.93 C 1337.86 348.52 1334.79 348.89 1332.72 348.04 C 1338.95 347.85 1345.19 347.83 1351.43 348.04 C 1349.35 348.90 1346.12 348.46 1345.28 351.02 C 1344.75 355.37 1345.16 359.78 1345.07 364.16 C 1334.56 376.79 1315.18 379.90 1300.82 372.38 C 1293.54 368.53 1288.39 361.14 1287.07 353.04 C 1285.54 344.06 1286.85 334.04 1292.84 326.86 Z" />
<path fill="#c1f0de" opacity="1.00" d=" M 1356.12 317.98 C 1363.63 317.49 1371.23 317.49 1378.75 317.97 C 1375.60 318.56 1370.97 319.18 1370.54 323.15 C 1370.36 337.44 1370.55 351.74 1370.45 366.04 C 1370.50 368.10 1370.11 370.55 1371.76 372.16 C 1373.48 374.23 1376.40 373.97 1378.78 374.62 C 1371.23 375.28 1363.51 375.33 1355.97 374.57 C 1358.40 373.99 1361.39 374.29 1363.17 372.15 C 1364.88 370.56 1364.48 368.06 1364.55 365.97 C 1364.45 351.75 1364.63 337.52 1364.46 323.31 C 1364.06 319.25 1359.33 318.50 1356.12 317.98 Z" />
</g>
</svg>
